<svg width="50" height="50" viewBox="0 0 50 50" fill="none" xmlns="http://www.w3.org/2000/svg">
<circle cx="25" cy="25" r="24" stroke="#4B4955" stroke-width="2"/>
<path d="M50 31.1305V18.8971L4.98047 14.793L1.21221 17.2895C0.425488 19.718 0 22.3091 0 24.9996C0 26.5874 0.148633 28.1404 0.431836 29.6461L47.168 35.5465L50 31.1305Z" fill="#FFF9EB"/>
<path d="M8.69141 24.9996C8.69141 21.5633 9.38516 18.2891 10.6396 15.3089L4.98047 14.793L1.21221 17.2895C0.425488 19.718 0 22.3091 0 24.9996C0 26.5874 0.148633 28.1404 0.431836 29.6461L9.36289 30.7736C8.92451 28.92 8.69141 26.9871 8.69141 24.9996Z" fill="#FCF1D4"/>
<path d="M49.999 8.03428V18.897C49.7686 18.9819 49.5391 19.0649 49.3086 19.1431C33.3359 24.6245 17.2139 14.9448 1.21094 17.2896C2.8457 12.2427 6.04102 7.89893 10.2285 4.82764C21.3418 5.66553 32.4883 9.82861 43.5781 8.27197C45.2965 8.03154 47.0136 7.65293 48.7289 7.10332C49.3572 6.90205 49.999 7.37441 49.999 8.03428Z" fill="#FB8B24"/>
<path d="M50.0006 31.1304V41.9689C50.0006 42.8243 49.4428 43.5765 48.6272 43.8345C45.621 44.7855 42.6088 45.2138 39.5942 45.2995C28.4517 45.6169 17.2632 41.2643 6.11865 41.3844C3.27295 38.1081 1.26611 34.0846 0.432129 29.6462C16.6431 26.8678 32.981 36.8874 49.1665 31.4255C49.4449 31.3316 49.7223 31.234 50.0006 31.1304Z" fill="#2FAD4F"/>
<path d="M22.4941 19.7614C19.7368 19.1267 17.2438 21.2776 17.2559 23.9886C17.2686 26.8329 19.611 29.7072 22.4941 30.2378C25.17 30.7302 27.7532 28.8047 27.7323 26.0107C27.7107 23.1243 25.2624 20.3987 22.4941 19.7614ZM27.2341 25.8954C26.3732 25.6491 25.514 25.3961 24.6569 25.1373C24.1226 25.1046 23.7532 25.0812 23.3452 25.0548C23.3404 25.0184 23.3334 24.9823 23.3245 24.9466C23.7226 24.9211 24.0831 24.8976 24.6042 24.8624C25.5268 24.5441 26.0219 24.3723 26.8827 24.0648C26.9317 24.1937 26.9765 24.3243 27.0159 24.4568C26.7524 24.4759 26.5845 24.7064 26.6382 24.9863C26.6919 25.2663 26.9473 25.4918 27.2165 25.5024C27.2281 25.6353 27.2335 25.7661 27.2341 25.8954ZM26.0073 23.3442C26.1601 23.6021 26.4639 23.7262 26.6979 23.6315C26.7579 23.7576 26.8131 23.886 26.864 24.0162C25.9256 24.1221 25.3859 24.1771 24.3801 24.2774C23.9142 24.4566 23.5921 24.5801 23.2363 24.7161C23.2184 24.6818 23.1986 24.6485 23.1772 24.6161C23.5048 24.4321 23.8014 24.2654 24.2303 24.0236C24.891 23.3401 25.2458 22.9726 25.862 22.3309C25.9537 22.4406 26.042 22.5531 26.126 22.669C25.9091 22.7911 25.8545 23.0865 26.0073 23.3442ZM24.8415 21.9531C25.0697 22.1502 25.3748 22.1555 25.5384 21.9713C25.6381 22.074 25.7343 22.1804 25.8272 22.2896C25.0679 22.7607 24.6306 23.0289 23.8165 23.5276C23.4898 23.8916 23.2639 24.1431 23.0144 24.4207C22.9863 24.3937 22.9569 24.368 22.9262 24.344C23.1333 24.0296 23.3209 23.7449 23.5921 23.3331C23.891 22.3876 24.0514 21.8798 24.33 20.9976C24.45 21.0721 24.568 21.1506 24.6833 21.2334C24.5465 21.4402 24.6134 21.756 24.8415 21.9531ZM23.3184 21.0204C23.5881 21.1279 23.8498 21.0125 23.9177 20.763C24.0421 20.8272 24.1644 20.8964 24.2847 20.9695C23.819 21.7373 23.5507 22.1789 23.0513 23.001C22.9136 23.4947 22.8185 23.836 22.7133 24.2132C22.6793 24.1975 22.6447 24.1835 22.6092 24.1717C22.6645 23.7746 22.7145 23.4152 22.7868 22.8954C22.6973 22.0185 22.6079 21.1414 22.5185 20.2644C22.6496 20.2914 22.7798 20.3233 22.909 20.3606C22.8707 20.6221 23.0486 20.9129 23.3184 21.0204ZM21.6698 20.6906C21.9398 20.6908 22.1175 20.4711 22.0791 20.1941C22.2099 20.2087 22.3402 20.2294 22.4697 20.2548C22.3802 21.096 22.2908 21.9371 22.2014 22.7783C22.2737 23.3271 22.3237 23.7065 22.379 24.1257C22.3435 24.1233 22.3088 24.1234 22.2748 24.1256C22.1697 23.7064 22.0746 23.3269 21.9369 22.778C21.5256 21.9366 21.1143 21.0952 20.7027 20.254C20.8226 20.2286 20.945 20.208 21.0704 20.1936C21.1377 20.4703 21.3998 20.6903 21.6698 20.6906ZM20.1466 21.0197C20.3753 20.9117 20.4419 20.6211 20.3038 20.36C20.4187 20.3226 20.5369 20.2906 20.6576 20.2636C20.9038 21.1403 21.1499 22.0171 21.396 22.894C21.6672 23.4139 21.8548 23.7735 22.062 24.1709C22.0313 24.1826 22.0019 24.1966 21.9739 24.2124C21.7244 23.8349 21.4985 23.4932 21.1717 22.9992C20.5028 22.3229 19.8323 21.648 19.1604 20.9744C19.2527 20.9002 19.3486 20.8302 19.4487 20.7652C19.6121 21.0137 19.918 21.1277 20.1466 21.0197ZM18.9809 21.9601C19.1333 21.7609 19.0793 21.4454 18.8635 21.2408C18.9469 21.157 19.0347 21.0776 19.126 21.0024C19.6708 21.7778 20.2149 22.554 20.7579 23.3309C21.1869 23.7425 21.4834 24.0274 21.8111 24.3425C21.7896 24.3663 21.7699 24.3917 21.752 24.4188C21.3961 24.1403 21.074 23.8887 20.6081 23.5255C19.7829 23.1164 18.9554 22.7113 18.1257 22.3114C18.1766 22.2006 18.232 22.0927 18.2922 21.9884C18.5258 22.1689 18.8285 22.1592 18.9809 21.9601ZM18.3499 23.3643C18.4036 23.1046 18.2361 22.8113 17.9731 22.6951C18.0124 22.5781 18.0574 22.4644 18.1068 22.3533C18.8682 22.9064 19.6273 23.4629 20.3839 24.0224C20.9052 24.2626 21.2657 24.4294 21.6638 24.6142C21.6548 24.6463 21.6479 24.6796 21.6431 24.7141C21.235 24.5773 20.8656 24.4538 20.3313 24.2765C19.4729 24.1961 18.6135 24.1219 17.754 24.055C17.7547 23.9237 17.7606 23.7942 17.772 23.6669C18.0411 23.7543 18.2962 23.624 18.3499 23.3643ZM17.754 24.1038C18.615 24.3501 19.4742 24.6031 20.3313 24.8619C20.8656 24.8946 21.235 24.9181 21.643 24.9444C21.6478 24.9809 21.6547 25.0169 21.6637 25.0526C21.2656 25.0781 20.9051 25.1017 20.3839 25.1368C19.4614 25.4551 18.9663 25.627 18.1055 25.9345C18.0565 25.8056 18.0117 25.6749 17.9723 25.5424C18.2358 25.5233 18.4038 25.2929 18.35 25.0129C18.2963 24.7329 18.0409 24.5074 17.7716 24.4968C17.76 24.3641 17.7546 24.2331 17.754 24.1038ZM18.9809 26.655C18.8281 26.3971 18.5243 26.2731 18.2903 26.3678C18.2303 26.2416 18.175 26.1132 18.1242 25.983C19.0625 25.8772 19.6023 25.8223 20.6081 25.7218C21.074 25.5426 21.396 25.4191 21.7519 25.2832C21.7698 25.3175 21.7896 25.3508 21.811 25.3832C21.4833 25.5672 21.1868 25.7339 20.7579 25.9757C20.0972 26.6592 19.7423 27.0268 19.1262 27.6685C19.0345 27.5588 18.9461 27.4462 18.8622 27.3304C19.079 27.2081 19.1336 26.9127 18.9809 26.655ZM20.1466 28.0462C19.9185 27.849 19.6133 27.8439 19.4498 28.0281C19.35 27.9254 19.2539 27.819 19.1609 27.7099C19.9202 27.2389 20.3575 26.9705 21.1716 26.4718C21.4983 26.1078 21.7242 25.8564 21.9737 25.5787C22.0018 25.6058 22.0312 25.6315 22.0619 25.6555C21.8547 25.9698 21.6671 26.2545 21.3959 26.6663C21.0971 27.6118 20.9367 28.1196 20.6581 29.0019C20.538 28.9274 20.4201 28.8489 20.3048 28.766C20.4416 28.5591 20.3748 28.2433 20.1466 28.0462ZM21.6698 28.9788C21.4 28.8713 21.1383 28.9867 21.0705 29.2362C20.946 29.1721 20.8237 29.1028 20.7035 29.0296C21.1692 28.2618 21.4374 27.8202 21.9369 26.9982C22.0746 26.5044 22.1697 26.1631 22.2748 25.7859C22.3088 25.8017 22.3435 25.8156 22.379 25.8274C22.3237 26.2245 22.2737 26.5839 22.2014 27.1036C22.2909 27.9807 22.3803 28.8576 22.4697 29.7347C22.3386 29.7076 22.2083 29.6757 22.0792 29.6385C22.1174 29.3772 21.9396 29.0863 21.6698 28.9788ZM23.3184 29.3087C23.0484 29.3085 22.8706 29.5282 22.909 29.8052C22.7782 29.7906 22.648 29.7699 22.5184 29.7445C22.6079 28.9033 22.6973 28.0622 22.7867 27.221C22.7144 26.6723 22.6644 26.2929 22.6091 25.8737C22.6446 25.8761 22.6792 25.876 22.7132 25.8738C22.8184 26.2931 22.9135 26.6725 23.0512 27.2213C23.4624 28.0628 23.8739 28.9041 24.2855 29.7454C24.1656 29.7708 24.0432 29.7913 23.9179 29.8059C23.8504 29.5289 23.5884 29.3089 23.3184 29.3087ZM24.8415 28.9795C24.6128 29.0875 24.5462 29.3781 24.6845 29.6393C24.5696 29.6767 24.4514 29.7086 24.3306 29.7357C24.0844 28.8589 23.8382 27.982 23.5921 27.1053C23.3208 26.5854 23.1333 26.2257 22.9261 25.8283C22.9568 25.8166 22.9862 25.8026 23.0142 25.7868C23.2637 26.1645 23.4896 26.5061 23.8163 27C24.4853 27.6764 25.1557 28.3513 25.8276 29.0248C25.7353 29.0989 25.6394 29.1691 25.5394 29.2339C25.3761 28.9856 25.0702 28.8715 24.8415 28.9795ZM26.0073 28.0392C25.8548 28.2383 25.9088 28.5538 26.1247 28.7583C26.0413 28.8421 25.9535 28.9215 25.8622 28.9968C25.3173 28.2212 24.7733 27.4451 24.2303 26.6683C23.8013 26.2567 23.5048 25.9717 23.1771 25.6566C23.1985 25.6328 23.2183 25.6074 23.2362 25.5804C23.592 25.8587 23.9142 26.1105 24.3801 26.4736C25.2053 26.8828 26.0328 27.2878 26.8624 27.6877C26.8116 27.7985 26.7562 27.9065 26.6959 28.0107C26.4623 27.8304 26.1597 27.84 26.0073 28.0392ZM26.6382 26.6351C26.5846 26.8947 26.7521 27.1879 27.0151 27.3042C26.9757 27.4212 26.9307 27.5351 26.8814 27.646C26.12 27.093 25.3609 26.5364 24.6042 25.977C24.083 25.7367 23.7225 25.5699 23.3244 25.3852C23.3333 25.353 23.3403 25.3197 23.3451 25.2853C23.7532 25.4221 24.1226 25.5455 24.6569 25.7229C25.5153 25.8032 26.3747 25.8775 27.2342 25.9443C27.2334 26.0755 27.2276 26.205 27.2162 26.3324C26.947 26.245 26.6918 26.3752 26.6382 26.6351Z" fill="#659BF2"/>
<path d="M9.04795 29.2168C6.17305 29.0637 3.30059 29.1543 0.432129 29.6459C1.26611 34.0844 3.27295 38.1078 6.11865 41.3842C9.23965 41.3506 12.3641 41.6678 15.4899 42.1349C12.189 38.6298 9.88984 34.1718 9.04795 29.2168Z" fill="#2B8F49"/>
<path d="M17.6932 5.78857C15.2039 5.36943 12.7153 5.01514 10.2285 4.82764C6.04102 7.89893 2.8457 12.2427 1.21094 17.2896C4.13193 16.8615 7.05684 16.8345 9.98418 17.0424C11.4732 12.6041 14.174 8.72227 17.6932 5.78857Z" fill="#F97306"/>
</svg>
