<?xml version="1.0" encoding="UTF-8" standalone="no"?>
<!DOCTYPE svg PUBLIC "-//W3C//DTD SVG 1.1//EN" "http://www.w3.org/Graphics/SVG/1.1/DTD/svg11.dtd">
<svg width="100%" height="100%" viewBox="0 0 5556 2778" version="1.1" xmlns="http://www.w3.org/2000/svg" xmlns:xlink="http://www.w3.org/1999/xlink" xml:space="preserve" xmlns:serif="http://www.serif.com/" style="fill-rule:evenodd;clip-rule:evenodd;stroke-linejoin:round;stroke-miterlimit:2;">
    <g id="Layer-1" serif:id="Layer 1" transform="matrix(5.55556,0,0,5.55556,0,0)">
        <g>
            <g>
                <g>
                    <g>
                        <text x="685.143px" y="210.858px" style="font-family:'UniSansBookItalic';font-style:italic;font-size:104.051px;fill:rgb(229,42,38);">p<tspan x="739.492px 764.083px 819.369px " y="210.858px 210.858px 210.858px ">lus</tspan></text>
                    </g>
                </g>
            </g>
        </g>
        <g transform="matrix(1,0,0,1,647.57,246.869)">
            <path d="M0,0.232C0,0.232 -1.643,9.992 -11.441,9.992L-21.041,9.992C-21.041,9.992 -30.831,9.992 -29.164,0.232L-22.273,-38.514C-22.273,-38.514 -20.465,-48.153 -10.695,-48.153L8.646,-48.153L0,0.232ZM19.37,0.232L31.35,-67.517L-7.379,-67.517C-36.557,-67.517 -41.736,-38.517 -41.736,-38.517L-48.503,0.229C-53.543,29.381 -24.361,29.381 -24.361,29.381L-14.742,29.381C-7.542,29.381 -1.461,23.858 2.43,18.663C9.051,29.381 24.023,29.381 24.023,29.381L27.333,9.989C17.716,9.992 19.372,0.232 19.372,0.232L19.37,0.232ZM-153.23,0.232C-153.23,0.232 -154.854,9.992 -164.643,9.992L-174.237,9.992C-174.237,9.992 -184.037,9.992 -182.374,0.232L-175.521,-38.514C-175.521,-38.514 -173.694,-48.153 -163.907,-48.153L-144.547,-48.153L-153.23,0.232ZM-234.048,0.232C-234.048,0.232 -235.72,9.992 -245.532,9.992L-255.126,9.992C-255.126,9.992 -264.88,9.992 -263.213,0.232L-256.395,-38.514C-256.395,-38.514 -254.553,-48.153 -244.785,-48.153L-225.396,-48.153L-234.048,0.232ZM-98.58,-67.517L-108.365,-67.517L-121.949,9.898C-136.828,9.082 -133.86,0.232 -133.86,0.232L-121.845,-67.517L-160.595,-67.517C-189.755,-67.517 -194.905,-38.517 -194.905,-38.517L-201.755,0.229C-202.331,3.386 -202.466,6.607 -202.155,9.801C-216.034,8.528 -214.673,0.229 -214.673,0.229L-202.698,-67.52L-241.453,-67.52C-270.596,-67.52 -275.753,-38.52 -275.753,-38.52L-282.587,0.226C-287.615,29.378 -258.387,29.378 -258.387,29.378L-248.801,29.378C-241.643,29.378 -235.556,23.856 -231.66,18.66C-224.496,32.04 -204.046,29.378 -204.046,29.378L-200.922,14.973C-195.739,29.323 -177.562,29.378 -177.562,29.378L-167.99,29.378C-160.765,29.378 -154.666,23.856 -150.802,18.66C-145.469,27.345 -138.32,29.031 -125.37,29.301L-125.37,29.378L-105.997,29.378L-94.21,-38.333C-94.21,-38.333 -92.333,-48.159 -82.546,-48.159L-72.973,-48.159C-72.973,-48.159 -63.172,-48.159 -65.012,-38.333L-76.843,29.378L-57.47,29.378L-45.486,-38.917C-40.478,-67.887 -69.623,-67.523 -69.623,-67.523L-98.58,-67.523L-98.58,-67.517ZM-300.028,-38.517L-308.499,9.989L-327.898,9.989C-327.898,9.989 -337.467,9.989 -335.809,0.229L-328.999,-38.517C-328.999,-38.517 -327.171,-48.156 -317.571,-48.156L-307.779,-48.156C-307.779,-48.156 -298.166,-48.152 -300.028,-38.514L-300.028,-38.517ZM-275.51,-67.517L-314.199,-67.517C-314.199,-67.517 -343.188,-67.517 -348.379,-38.517L-355.19,0.229C-360.19,29.381 -331.204,29.381 -331.204,29.381L-311.791,29.381L-313.65,39.168C-313.65,39.168 -315.303,48.757 -324.92,48.757L-357.953,48.757L-368.796,68.119L-328.43,68.119C-328.43,68.119 -299.452,68.119 -294.302,39.171L-275.51,-67.517Z" style="fill:rgb(229,42,38);fill-rule:nonzero;"/>
        </g>
        <g transform="matrix(1,0,0,1,859.973,156.294)">
            <path d="M0,55.307L9.652,0.017C10.583,-5.307 16.899,-8.657 21.081,-6.045L70.626,18.605C74.902,21.278 73.688,28.111 68.469,30.756L9.269,61.39C4.181,63.964 -0.929,60.608 0,55.307" style="fill:rgb(229,42,38);fill-rule:nonzero;"/>
        </g>
        <g transform="matrix(1,0,0,1,246.803,169.13)">
            <path d="M0,151.48C0,155.528 -3.292,158.817 -7.349,158.817L-158.808,158.817C-162.865,158.817 -166.154,155.528 -166.154,151.48L-166.154,-0.006C-166.154,-4.057 -162.865,-7.337 -158.808,-7.337L-7.349,-7.337C-3.292,-7.337 0,-4.057 0,-0.006L0,151.48Z" style="fill:rgb(229,41,38);fill-rule:nonzero;"/>
        </g>
        <g transform="matrix(1,0,0,1,179.446,285.883)">
            <path d="M0,-77.715L-8.479,-29.175L-27.766,-29.175C-27.766,-29.175 -37.367,-29.175 -35.684,-38.961L-28.862,-77.715C-28.862,-77.715 -27.037,-87.317 -17.472,-87.317L-7.719,-87.317C-7.719,-87.317 1.853,-87.317 0,-77.715M24.475,-106.708L-14.173,-106.708C-14.173,-106.708 -43.056,-106.708 -48.21,-77.715L-55.008,-38.961C-59.983,-9.775 -31.091,-9.775 -31.091,-9.775L-11.757,-9.775L-13.596,0.002C-13.596,0.002 -15.25,9.618 -24.841,9.618L-57.778,9.618L-61.231,28.993L-28.347,28.993C-28.347,28.993 0.548,28.993 5.709,0.002L24.475,-106.708Z" style="fill:white;fill-rule:nonzero;"/>
        </g>
    </g>
</svg>
